# xmcd
#
# Track frame offsets: 
#        150
#        18735
#        35252
#        64617
#        86335
#        109167
#        136285
#        156757
#        179295
#        195262
#        215650
#
# Disc length: 3182 seconds
#
# Revision: 3
# Processed by: cddbd v1.5.2PL0 Copyright (c) Steve Scherf et al.
# Submitted via: ExactAudioCopy v1.0b3
#
DISCID=8d0c6c0b
DTITLE=Jimmy Thackery and The Drivers - We Got It
DYEAR=2002
DGENRE=Blues Rock
TTITLE0=My Searching Is Over
TTITLE1=I Still Want to Be Your Man
TTITLE2=It's All Wrong but It's All Right
TTITLE3=Where'd My Good Friend Go?
TTITLE4=We Got It
TTITLE5=Blues Dog Prowl
TTITLE6=Blues for Sale
TTITLE7=Dangerous Highway
TTITLE8=Super Lover
TTITLE9=Get Off in It
TTITLE10=Big Fat Woman
EXTD=LABEL =Telarc\nID =CD-83540\nUPC =none\nCOPYRIGHT =2002\n****
EXTD=*\nwww.jimmythackery.com
EXTT0=
EXTT1=
EXTT2=
EXTT3=
EXTT4=
EXTT5=
EXTT6=
EXTT7=
EXTT8=
EXTT9=
EXTT10=
PLAYORDER=
